<?xml version="1.0" encoding="UTF-8" standalone="no"?>
<!-- Created with Inkscape (http://www.inkscape.org/) -->

<svg
   width="87.135002mm"
   height="13.615mm"
   viewBox="0 0 87.135002 13.615"
   version="1.1"
   id="svg521"
   inkscape:version="1.2.2 (b0a8486541, 2022-12-01)"
   sodipodi:docname="Logo.noline.svg"
   xmlns:inkscape="http://www.inkscape.org/namespaces/inkscape"
   xmlns:sodipodi="http://sodipodi.sourceforge.net/DTD/sodipodi-0.dtd"
   xmlns="http://www.w3.org/2000/svg"
   xmlns:svg="http://www.w3.org/2000/svg">
  <sodipodi:namedview
     id="namedview523"
     pagecolor="#ffffff"
     bordercolor="#666666"
     borderopacity="1.0"
     inkscape:showpageshadow="2"
     inkscape:pageopacity="0.0"
     inkscape:pagecheckerboard="0"
     inkscape:deskcolor="#d1d1d1"
     inkscape:document-units="mm"
     showgrid="false"
     inkscape:zoom="2.3786088"
     inkscape:cx="108.67697"
     inkscape:cy="97.536006"
     inkscape:window-width="1920"
     inkscape:window-height="1131"
     inkscape:window-x="0"
     inkscape:window-y="0"
     inkscape:window-maximized="1"
     inkscape:current-layer="g181" />
  <defs
     id="defs518">
    <clipPath
       id="presentation_clip_path"
       clipPathUnits="userSpaceOnUse">
      <rect
         x="0"
         y="0"
         width="21000"
         height="29700"
         id="rect2" />
    </clipPath>
  </defs>
  <g
     inkscape:label="Layer 1"
     inkscape:groupmode="layer"
     id="layer1"
     transform="translate(-38.935847,-97.268814)">
    <g
       class="SlideGroup"
       id="g204"
       transform="matrix(0.01,0,0,0.01,-26.004153,75.778814)">
      <g
         id="g202">
        <g
           id="container-id1">
          <g
             id="id1"
             class="Slide"
             clip-path="url(#presentation_clip_path)">
            <g
               class="Page"
               id="g198">
              <g
                 class="Group"
                 id="g196">
                <g
                   class="Group"
                   id="g181">
                  <g
                     id="g14670">
                    <g
                       class="com.sun.star.drawing.OpenBezierShape"
                       id="g100">
                      <g
                         id="id4">
                        <rect
                           class="BoundingBox"
                           stroke="none"
                           fill="none"
                           x="6494"
                           y="2479"
                           width="913"
                           height="1029"
                           id="rect95" />
                        <path
                           fill="none"
                           stroke="#666666"
                           stroke-width="212"
                           stroke-linejoin="round"
                           stroke-linecap="round"
                           d="m 6600,2585 v 815 -489 c 0,-163 150,-326 350,-326 200,0 350,163 350,326 v 489"
                           id="path97" />
                      </g>
                    </g>
                    <g
                       class="com.sun.star.drawing.ClosedBezierShape"
                       id="g107">
                      <g
                         id="id5">
                        <rect
                           class="BoundingBox"
                           stroke="none"
                           fill="none"
                           x="7544"
                           y="2479"
                           width="913"
                           height="1029"
                           id="rect102" />
                        <path
                           fill="none"
                           stroke="#666666"
                           stroke-width="212"
                           stroke-linejoin="round"
                           d="m 8000,2585 c -250,0 -350,245 -350,408 0,163 100,407 350,407 250,0 350,-244 350,-407 0,-163 -100,-408 -350,-408 z"
                           id="path104" />
                      </g>
                    </g>
                    <g
                       class="com.sun.star.drawing.OpenBezierShape"
                       id="g114">
                      <g
                         id="id6">
                        <rect
                           class="BoundingBox"
                           stroke="none"
                           fill="none"
                           x="8594"
                           y="2479"
                           width="613"
                           height="1029"
                           id="rect109" />
                        <path
                           fill="none"
                           stroke="#666666"
                           stroke-width="212"
                           stroke-linejoin="round"
                           stroke-linecap="round"
                           d="m 8700,2585 v 815 -489 c 0,-163 200,-326 400,-326"
                           id="path111" />
                      </g>
                    </g>
                    <g
                       class="com.sun.star.drawing.OpenBezierShape"
                       id="g121">
                      <g
                         id="id7">
                        <rect
                           class="BoundingBox"
                           stroke="none"
                           fill="none"
                           x="9294"
                           y="2479"
                           width="213"
                           height="1029"
                           id="rect116" />
                        <path
                           fill="none"
                           stroke="#666666"
                           stroke-width="212"
                           stroke-linejoin="round"
                           stroke-linecap="round"
                           d="m 9400,2585 v 815"
                           id="path118" />
                      </g>
                    </g>
                    <g
                       class="com.sun.star.drawing.OpenBezierShape"
                       id="g128">
                      <g
                         id="id8">
                        <rect
                           class="BoundingBox"
                           stroke="none"
                           fill="none"
                           x="9694"
                           y="2479"
                           width="764"
                           height="1029"
                           id="rect123" />
                        <path
                           fill="none"
                           stroke="#666666"
                           stroke-width="212"
                           stroke-linejoin="round"
                           stroke-linecap="round"
                           d="m 10300,2626 c -150,-41 -150,-41 -200,-41 -50,0 -300,0 -300,163 0,115 100,204 300,245 200,41 250,148 250,244 0,123 -150,163 -250,163 -100,0 -100,0 -300,-40"
                           id="path125" />
                      </g>
                    </g>
                    <g
                       class="com.sun.star.drawing.CustomShape"
                       id="g135">
                      <g
                         id="id9">
                        <rect
                           class="BoundingBox"
                           stroke="none"
                           fill="none"
                           x="9299"
                           y="2149"
                           width="203"
                           height="203"
                           id="rect130" />
                        <path
                           fill="#666666"
                           stroke="none"
                           d="m 9501,2251 c 0,17 -5,34 -13,50 -9,15 -22,28 -37,37 -16,8 -33,13 -50,13 -18,0 -35,-5 -51,-13 -15,-9 -28,-22 -37,-37 -8,-16 -13,-33 -13,-50 0,-18 5,-35 13,-51 9,-15 22,-28 37,-37 16,-8 33,-13 51,-13 17,0 34,5 50,13 15,9 28,22 37,37 8,16 13,33 13,51 z"
                           id="path132" />
                      </g>
                    </g>
                  </g>
                  <g
                     id="g14644"
                     style="stroke:#d6ad00;stroke-opacity:1">
                    <g
                       class="com.sun.star.drawing.OpenBezierShape"
                       id="g142"
                       style="stroke:#d6ad00;stroke-opacity:1">
                      <g
                         id="id10"
                         style="stroke:#d6ad00;stroke-opacity:1">
                        <rect
                           class="BoundingBox"
                           stroke="none"
                           fill="none"
                           x="11195"
                           y="2480"
                           width="764"
                           height="1029"
                           id="rect137"
                           style="stroke:#d6ad00;stroke-opacity:1" />
                        <path
                           fill="none"
                           stroke="#f3e300"
                           stroke-width="212"
                           stroke-linejoin="round"
                           stroke-linecap="round"
                           d="m 11801,2627 c -150,-41 -150,-41 -200,-41 -50,0 -300,0 -300,163 0,115 100,204 300,245 200,40 250,148 250,244 0,122 -150,163 -250,163 -100,0 -100,0 -300,-41"
                           id="path139"
                           style="stroke:#d6ad00;stroke-opacity:1" />
                      </g>
                    </g>
                    <g
                       class="com.sun.star.drawing.OpenBezierShape"
                       id="g149"
                       style="stroke:#d6ad00;stroke-opacity:1">
                      <g
                         id="id11"
                         style="stroke:#d6ad00;stroke-opacity:1">
                        <rect
                           class="BoundingBox"
                           stroke="none"
                           fill="none"
                           x="13093"
                           y="2194"
                           width="364"
                           height="1314"
                           id="rect144"
                           style="stroke:#d6ad00;stroke-opacity:1" />
                        <path
                           fill="none"
                           stroke="#f3e300"
                           stroke-width="212"
                           stroke-linejoin="round"
                           stroke-linecap="round"
                           d="m 13200,2300 c 13,55 0,815 0,897 0,81 0,203 150,203"
                           id="path146"
                           style="stroke:#d6ad00;stroke-opacity:1" />
                      </g>
                    </g>
                    <g
                       class="com.sun.star.drawing.OpenBezierShape"
                       id="g156"
                       style="stroke:#d6ad00;stroke-opacity:1">
                      <g
                         id="id12"
                         style="stroke:#d6ad00;stroke-opacity:1">
                        <rect
                           class="BoundingBox"
                           stroke="none"
                           fill="none"
                           x="13594"
                           y="2480"
                           width="768"
                           height="1030"
                           id="rect151"
                           style="stroke:#d6ad00;stroke-opacity:1" />
                        <path
                           fill="none"
                           stroke="#f3e300"
                           stroke-width="212"
                           stroke-linejoin="round"
                           stroke-linecap="round"
                           d="m 13700,2626 c 150,-41 202,-39 252,-39 50,0 298,39 300,163 -2,121 -52,161 -302,202 -250,41 -250,204 -250,245 0,122 127,205 252,205 125,0 298,-83 298,-205 v -408 c 0,122 11,466 0,611"
                           id="path153"
                           style="stroke:#d6ad00;stroke-opacity:1" />
                      </g>
                    </g>
                    <g
                       class="com.sun.star.drawing.OpenBezierShape"
                       id="g163"
                       style="stroke:#d6ad00;stroke-opacity:1">
                      <g
                         id="id13"
                         style="stroke:#d6ad00;stroke-opacity:1">
                        <rect
                           class="BoundingBox"
                           stroke="none"
                           fill="none"
                           x="14594"
                           y="2479"
                           width="613"
                           height="1029"
                           id="rect158"
                           style="stroke:#d6ad00;stroke-opacity:1" />
                        <path
                           fill="none"
                           stroke="#f3e300"
                           stroke-width="212"
                           stroke-linejoin="round"
                           stroke-linecap="round"
                           d="m 14700,2585 v 815 -489 c 0,-163 200,-326 400,-326"
                           id="path160"
                           style="stroke:#d6ad00;stroke-opacity:1" />
                      </g>
                    </g>
                    <g
                       class="com.sun.star.drawing.ClosedBezierShape"
                       id="g170"
                       style="stroke:#d6ad00;stroke-opacity:1">
                      <g
                         id="id14"
                         style="stroke:#d6ad00;stroke-opacity:1">
                        <rect
                           class="BoundingBox"
                           stroke="none"
                           fill="none"
                           x="12044"
                           y="2479"
                           width="913"
                           height="1029"
                           id="rect165"
                           style="stroke:#d6ad00;stroke-opacity:1" />
                        <path
                           fill="none"
                           stroke="#f3e300"
                           stroke-width="212"
                           stroke-linejoin="round"
                           d="m 12500,2585 c -250,0 -350,245 -350,408 0,163 100,407 350,407 250,0 350,-244 350,-407 0,-163 -100,-408 -350,-408 z"
                           id="path167"
                           style="stroke:#d6ad00;stroke-opacity:1" />
                      </g>
                    </g>
                  </g>
                  <g
                     class="com.sun.star.drawing.CustomShape"
                     id="g179">
                    <g
                       id="id15">
                      <rect
                         class="BoundingBox"
                         stroke="none"
                         fill="none"
                         x="10599"
                         y="2999"
                         width="454"
                         height="454"
                         id="rect172" />
                      <path
                         fill="#ff860d"
                         stroke="none"
                         d="m 11051,3226 c 0,39 -10,78 -30,112 -20,35 -48,63 -83,83 -34,20 -73,30 -112,30 -40,0 -79,-10 -113,-30 -35,-20 -63,-48 -83,-83 -20,-34 -30,-73 -30,-112 0,-40 10,-79 30,-113 20,-35 48,-63 83,-83 34,-20 73,-30 113,-30 39,0 78,10 112,30 35,20 63,48 83,83 20,34 30,73 30,113 z"
                         id="path174" />
                      <path
                         fill="none"
                         stroke="#f3e300"
                         d="m 11051,3226 c 0,39 -10,78 -30,112 -20,35 -48,63 -83,83 -34,20 -73,30 -112,30 -40,0 -79,-10 -113,-30 -35,-20 -63,-48 -83,-83 -20,-34 -30,-73 -30,-112 0,-40 10,-79 30,-113 20,-35 48,-63 83,-83 34,-20 73,-30 113,-30 39,0 78,10 112,30 35,20 63,48 83,83 20,34 30,73 30,113 z"
                         id="path176" />
                    </g>
                  </g>
                </g>
              </g>
            </g>
          </g>
        </g>
      </g>
    </g>
  </g>
</svg>
